<svg width="104" height="84" viewBox="0 0 104 84" fill="none" xmlns="http://www.w3.org/2000/svg">
<path d="M65.2418 51.6055C65.2418 48.0182 63.8168 44.5779 61.2802 42.0414C58.7436 39.5048 55.3033 38.0798 51.7161 38.0798C48.1289 38.0798 44.6886 39.5048 42.152 42.0414C39.6155 44.5779 38.1904 48.0182 38.1904 51.6055L51.7161 51.6055H65.2418Z" fill="#EDEDED"/>
<path d="M61.4018 20.2181L49.8911 45.0863C49.4614 46.0145 49.9036 47.1073 50.8648 47.4931C51.8261 47.8789 52.9213 47.4032 53.2771 46.4454L62.8082 20.7826C62.9482 20.4058 62.7598 19.9878 62.3817 19.836C62.0036 19.6842 61.5708 19.853 61.4018 20.2181Z" fill="#2C2C2C"/>
<path d="M0.689416 59.7419C0.750066 60.7426 1.49304 61.3264 2.46345 61.3264C3.63097 61.3264 4.30571 60.5303 4.30571 59.5448C4.30571 58.7639 3.79776 58.0209 2.91833 57.983L4.26022 56.0725V55.9361H0.901693V56.6487H3.03963L1.84178 58.4303V58.5819C2.56959 58.4 3.47177 58.6653 3.47177 59.5524C3.47177 60.1816 3.06237 60.5607 2.44829 60.5607C1.90243 60.5607 1.52336 60.2802 1.47029 59.7419H0.689416ZM7.20308 55.8451C6.10379 55.8451 5.22436 56.535 5.22436 57.6722V59.5069C5.22436 60.6516 6.10379 61.334 7.20308 61.334C8.28722 61.334 9.16665 60.6516 9.16665 59.5069V57.6722C9.16665 56.535 8.28722 55.8451 7.20308 55.8451ZM7.20308 60.5531C6.65723 60.5531 6.22509 60.2877 6.11137 59.7798C6.08105 59.6282 6.0583 59.4614 6.0583 59.2794V57.9072C6.0583 57.7253 6.08105 57.5585 6.11137 57.4068C6.22509 56.8913 6.65723 56.6184 7.20308 56.6184C7.74894 56.6184 8.1735 56.8913 8.28722 57.4068C8.31754 57.5585 8.34028 57.7253 8.34028 57.9072V59.2794C8.34028 59.4614 8.31754 59.6282 8.28722 59.7798C8.1735 60.2877 7.74894 60.5531 7.20308 60.5531ZM12.1783 55.8451C11.079 55.8451 10.1996 56.535 10.1996 57.6722V59.5069C10.1996 60.6516 11.079 61.334 12.1783 61.334C13.2625 61.334 14.1419 60.6516 14.1419 59.5069V57.6722C14.1419 56.535 13.2625 55.8451 12.1783 55.8451ZM12.1783 60.5531C11.6325 60.5531 11.2003 60.2877 11.0866 59.7798C11.0563 59.6282 11.0336 59.4614 11.0336 59.2794V57.9072C11.0336 57.7253 11.0563 57.5585 11.0866 57.4068C11.2003 56.8913 11.6325 56.6184 12.1783 56.6184C12.7242 56.6184 13.1487 56.8913 13.2625 57.4068C13.2928 57.5585 13.3155 57.7253 13.3155 57.9072V59.2794C13.3155 59.4614 13.2928 59.6282 13.2625 59.7798C13.1487 60.2877 12.7242 60.5531 12.1783 60.5531Z" fill="#ACACAC"/>
<path d="M91.324 61.2354L92.9236 58.6957C93.1587 58.3393 93.28 57.9982 93.28 57.5736C93.28 56.3909 92.4081 55.8072 91.3164 55.8072C90.2171 55.8072 89.3453 56.3909 89.3453 57.5736C89.3453 58.6729 90.1337 59.3022 91.1951 59.2794C91.3695 59.2794 91.5514 59.2339 91.6955 59.1505L90.3612 61.2354H91.324ZM91.3164 56.5577C91.9532 56.5577 92.4081 56.9141 92.4081 57.5736C92.4081 58.2332 91.9532 58.5971 91.3164 58.5971C90.6796 58.5971 90.2171 58.2332 90.2171 57.5736C90.2171 56.9141 90.672 56.5577 91.3164 56.5577ZM96.083 55.8451C94.9837 55.8451 94.1043 56.535 94.1043 57.6722V59.5069C94.1043 60.6516 94.9837 61.334 96.083 61.334C97.1671 61.334 98.0466 60.6516 98.0466 59.5069V57.6722C98.0466 56.535 97.1671 55.8451 96.083 55.8451ZM96.083 60.5531C95.5371 60.5531 95.105 60.2877 94.9913 59.7798C94.961 59.6282 94.9382 59.4614 94.9382 59.2794V57.9072C94.9382 57.7253 94.961 57.5585 94.9913 57.4068C95.105 56.8913 95.5371 56.6184 96.083 56.6184C96.6288 56.6184 97.0534 56.8913 97.1671 57.4068C97.1974 57.5585 97.2202 57.7253 97.2202 57.9072V59.2794C97.2202 59.4614 97.1974 59.6282 97.1671 59.7798C97.0534 60.2877 96.6288 60.5531 96.083 60.5531ZM101.058 55.8451C99.9589 55.8451 99.0795 56.535 99.0795 57.6722V59.5069C99.0795 60.6516 99.9589 61.334 101.058 61.334C102.142 61.334 103.022 60.6516 103.022 59.5069V57.6722C103.022 56.535 102.142 55.8451 101.058 55.8451ZM101.058 60.5531C100.512 60.5531 100.08 60.2877 99.9665 59.7798C99.9362 59.6282 99.9135 59.4614 99.9135 59.2794V57.9072C99.9135 57.7253 99.9362 57.5585 99.9665 57.4068C100.08 56.8913 100.512 56.6184 101.058 56.6184C101.604 56.6184 102.029 56.8913 102.142 57.4068C102.173 57.5585 102.195 57.7253 102.195 57.9072V59.2794C102.195 59.4614 102.173 59.6282 102.142 59.7798C102.029 60.2877 101.604 60.5531 101.058 60.5531Z" fill="#ACACAC"/>
<path d="M43.8198 60.3725H33.8097V62.9961H39.7633L34.7583 74.4996H37.8057L43.8198 60.7963V60.3725ZM44.6096 70.3624C44.7105 73.0869 46.7489 74.762 49.3927 74.762C52.5814 74.762 54.3574 72.4411 54.3574 69.9386C54.3574 67.981 53.3281 66.1242 51.0677 65.7408L54.1354 60.8165V60.3926H45.1545V62.7943H50.1394L47.5359 67.2746V67.6984C49.3523 67.3755 51.4512 67.6984 51.5117 69.9588C51.4916 71.2504 50.6641 72.1586 49.3523 72.1586C48.1414 72.1586 47.3341 71.5531 47.2534 70.3624H44.6096ZM61.1207 60.2716L57.0239 66.9315C56.4789 67.7993 56.1157 68.9295 56.1157 69.9588C56.1157 73.1878 58.4164 74.7216 61.4235 74.7216C64.4305 74.7216 66.7716 73.1878 66.7716 69.9588C66.7716 67.0526 64.7736 65.2968 61.928 65.3977C61.6656 65.3977 61.4235 65.4582 61.2015 65.5793L64.4305 60.2716H61.1207ZM61.4235 72.1586C59.9704 72.1586 59.0622 71.3917 59.0622 69.9588C59.0622 68.5057 59.9704 67.6984 61.4235 67.6984C62.8765 67.6984 63.7645 68.5057 63.7645 69.9588C63.7645 71.3917 62.8765 72.1586 61.4235 72.1586Z" fill="#2C2C2C"/>
<path d="M0 51.7158C1.19908e-06 37.9999 5.44862 24.8458 15.1472 15.1472C24.8458 5.44862 37.9999 -1.6356e-07 51.7158 0V5.17158C39.3715 5.17158 27.5328 10.0753 18.8041 18.8041C10.0753 27.5328 5.17158 39.3715 5.17158 51.7158H0Z" fill="#E15825"/>
<path d="M52.7737 0.0108643C59.1812 0.141889 65.5085 1.46276 71.4333 3.90616L69.4616 8.68713C64.1293 6.48807 58.4347 5.29929 52.668 5.18137L52.7737 0.0108643Z" fill="#F18200"/>
<path d="M72.3875 4.31067C78.2621 6.87238 83.6094 10.5037 88.1569 15.0196L84.5128 18.6892C80.42 14.6249 75.6075 11.3567 70.3203 9.05115L72.3875 4.31067Z" fill="#FCD800"/>
<path d="M88.8535 15.7261C93.3135 20.3284 96.8793 25.7196 99.3691 31.6251L94.6037 33.6342C92.3629 28.3193 89.1537 23.4672 85.1396 19.3251L88.8535 15.7261Z" fill="#A9D161"/>
<path d="M99.83 32.7544C102.18 38.7169 103.401 45.0642 103.431 51.473L98.2596 51.4974C98.2325 45.7295 97.1334 40.0169 95.0186 34.6506L99.83 32.7544Z" fill="#009900"/>
</svg>
