<svg width="702" height="253" viewBox="0 0 702 253" fill="none" xmlns="http://www.w3.org/2000/svg">
<path d="M701 1H33V230H701V1Z" fill="#E7EFFC"/>
<path d="M38.66 241.6H35.492V242.812H37.268V247.18C37.268 248.272 36.536 248.872 35.48 248.872C34.424 248.872 33.68 248.284 33.68 247.18V246.256H32.372V247.204C32.372 249.04 33.716 250.12 35.48 250.12C37.256 250.12 38.66 249.04 38.66 247.204V241.6ZM45.632 248.26L46.46 250H47.912V249.82L44.048 241.54H43.4L39.512 249.82V250H40.976L41.792 248.26H45.632ZM43.724 243.724L45.188 247.084H42.248L43.724 243.724ZM55.4015 250.012H55.8815V241.6H54.4895V244.66L54.5855 247.228L49.4855 241.576H48.9815V250H50.3615V246.952L50.2655 244.288L55.4015 250.012Z" fill="#707070"/>
<path d="M95.772 245.5H92.436V242.824H96.108V241.6H91.044V250H92.436V246.736H95.772V245.5ZM102.73 241.6H97.6182V250H102.802V248.728H99.0222V246.28H102.526V245.044H99.0222V242.824H102.73V241.6ZM110.592 243.964C110.592 242.38 109.476 241.6 107.952 241.6H104.544V250H108.3C109.932 250 110.964 249.028 110.964 247.528C110.964 246.58 110.484 245.884 109.608 245.584C110.268 245.26 110.592 244.672 110.592 243.964ZM107.856 242.812C108.672 242.812 109.224 243.172 109.224 244C109.212 244.816 108.66 245.128 107.856 245.128H105.936V242.812H107.856ZM108.06 246.268C108.444 246.268 108.828 246.292 109.152 246.532C109.44 246.772 109.584 247.108 109.584 247.528C109.548 248.332 108.996 248.776 108.216 248.776H105.936V246.268H108.06Z" fill="#ACACAC"/>
<path d="M149.98 245.92L146.56 241.576H146.044V250H147.448V244.744L149.884 247.852H150.076L152.5 244.744V250H153.904V241.576H153.388L149.98 245.92ZM161.081 248.26L161.909 250H163.361V249.82L159.497 241.54H158.849L154.961 249.82V250H156.425L157.241 248.26H161.081ZM159.173 243.724L160.637 247.084H157.697L159.173 243.724ZM169.051 246.856C170.119 246.472 170.815 245.5 170.815 244.336C170.815 242.836 169.723 241.6 167.899 241.6H164.431V250H165.835V247.072H167.683L169.771 250H171.187V249.796L169.051 246.856ZM165.811 245.92V242.812H167.887C168.811 242.812 169.459 243.472 169.459 244.348C169.459 245.26 168.799 245.92 167.887 245.92H165.811Z" fill="#ACACAC"/>
<path d="M211.132 248.26L211.96 250H213.412V249.82L209.548 241.54H208.9L205.012 249.82V250H206.476L207.292 248.26H211.132ZM209.224 243.724L210.688 247.084H207.748L209.224 243.724ZM215.886 250V247.48H217.962C219.81 247.48 220.926 246.136 220.926 244.564C220.926 242.968 219.834 241.6 217.962 241.6H214.482V250H215.886ZM215.862 246.256V242.812H217.962C218.934 242.812 219.582 243.556 219.582 244.528C219.582 245.5 218.91 246.256 217.962 246.256H215.862ZM226.93 246.856C227.998 246.472 228.694 245.5 228.694 244.336C228.694 242.836 227.602 241.6 225.778 241.6H222.31V250H223.714V247.072H225.562L227.65 250H229.066V249.796L226.93 246.856ZM223.69 245.92V242.812H225.766C226.69 242.812 227.338 243.472 227.338 244.348C227.338 245.26 226.678 245.92 225.766 245.92H223.69Z" fill="#ACACAC"/>
<path d="M267.98 245.92L264.56 241.576H264.044V250H265.448V244.744L267.884 247.852H268.076L270.5 244.744V250H271.904V241.576H271.388L267.98 245.92ZM279.081 248.26L279.909 250H281.361V249.82L277.497 241.54H276.849L272.961 249.82V250H274.425L275.241 248.26H279.081ZM277.173 243.724L278.637 247.084H275.697L277.173 243.724ZM284.44 245.404L283.432 243.472L282.304 241.6H280.804V241.804L283.768 246.592V250H285.16V246.592L288.112 241.804V241.6H286.624L285.532 243.412L284.488 245.404H284.44Z" fill="#ACACAC"/>
<path d="M328.66 241.6H325.492V242.812H327.268V247.18C327.268 248.272 326.536 248.872 325.48 248.872C324.424 248.872 323.68 248.284 323.68 247.18V246.256H322.372V247.204C322.372 249.04 323.716 250.12 325.48 250.12C327.256 250.12 328.66 249.04 328.66 247.204V241.6ZM333.865 250.108C335.653 250.108 337.117 249.052 337.117 247.18V241.6H335.737V247.144C335.737 248.248 334.921 248.86 333.865 248.86C332.797 248.86 331.969 248.248 331.969 247.144V241.6H330.577V247.18C330.577 249.052 332.053 250.108 333.865 250.108ZM345.542 250.012H346.022V241.6H344.63V244.66L344.726 247.228L339.626 241.576H339.122V250H340.502V246.952L340.406 244.288L345.542 250.012Z" fill="#ACACAC"/>
<path d="M387.66 241.6H384.492V242.812H386.268V247.18C386.268 248.272 385.536 248.872 384.48 248.872C383.424 248.872 382.68 248.284 382.68 247.18V246.256H381.372V247.204C381.372 249.04 382.716 250.12 384.48 250.12C386.256 250.12 387.66 249.04 387.66 247.204V241.6ZM392.865 250.108C394.653 250.108 396.117 249.052 396.117 247.18V241.6H394.737V247.144C394.737 248.248 393.921 248.86 392.865 248.86C391.797 248.86 390.969 248.248 390.969 247.144V241.6H389.577V247.18C389.577 249.052 391.053 250.108 392.865 250.108ZM399.526 241.6H398.122V250H403.138V248.74H399.526V241.6Z" fill="#ACACAC"/>
<path d="M443.132 248.26L443.96 250H445.412V249.82L441.548 241.54H440.9L437.012 249.82V250H438.476L439.292 248.26H443.132ZM441.224 243.724L442.688 247.084H439.748L441.224 243.724ZM449.557 250.108C451.345 250.108 452.809 249.052 452.809 247.18V241.6H451.429V247.144C451.429 248.248 450.613 248.86 449.557 248.86C448.489 248.86 447.661 248.248 447.661 247.144V241.6H446.269V247.18C446.269 249.052 447.745 250.108 449.557 250.108ZM454.322 245.788C454.322 248.488 456.266 250.108 458.558 250.108C460.214 250.108 461.654 249.34 462.29 247.744C462.566 247.012 462.626 246.268 462.59 245.464H458.654V246.652H461.27C461.042 248.26 459.998 248.836 458.558 248.836C456.83 248.836 455.738 247.564 455.738 245.788C455.738 244.108 456.794 242.752 458.558 242.752C459.674 242.752 460.49 243.148 460.958 244.12H462.338C461.822 242.26 460.238 241.492 458.57 241.492C456.314 241.492 454.322 243.1 454.322 245.788Z" fill="#ACACAC"/>
<path d="M497.54 247.612C497.576 249.376 499.292 250.192 500.936 250.156C502.508 250.156 504.248 249.46 504.248 247.612C504.248 245.68 502.688 245.344 500.984 245.152C500.012 245.02 499.064 244.9 499.064 243.952C499.064 243.004 500.06 242.692 500.828 242.692C501.656 242.692 502.604 242.98 502.664 243.88H503.984C503.948 242.164 502.436 241.444 500.84 241.444C499.208 241.444 497.684 242.26 497.684 243.988C497.684 245.668 499.208 246.16 500.744 246.292C501.716 246.388 502.856 246.496 502.856 247.6C502.856 248.644 501.8 248.908 500.912 248.908C500 248.908 498.968 248.56 498.908 247.612H497.54ZM510.926 241.6H505.814V250H510.998V248.728H507.218V246.28H510.722V245.044H507.218V242.824H510.926V241.6ZM514.143 250V247.48H516.219C518.067 247.48 519.183 246.136 519.183 244.564C519.183 242.968 518.091 241.6 516.219 241.6H512.739V250H514.143ZM514.119 246.256V242.812H516.219C517.191 242.812 517.839 243.556 517.839 244.528C517.839 245.5 517.167 246.256 516.219 246.256H514.119Z" fill="#ACACAC"/>
<path d="M562.108 245.8C562.108 243.064 560.128 241.456 557.836 241.456C555.556 241.456 553.552 243.064 553.552 245.8C553.552 248.536 555.508 250.144 557.812 250.144C560.344 250.144 562.108 248.356 562.108 245.8ZM554.968 245.8C554.968 243.856 556.264 242.764 557.848 242.764C559.42 242.764 560.716 243.88 560.716 245.8C560.716 247.756 559.408 248.824 557.836 248.824C556.252 248.824 554.968 247.756 554.968 245.8ZM563.208 245.812C563.208 248.512 565.188 250.084 567.468 250.084C569.172 250.084 570.9 249.184 571.32 247.132H569.964C569.592 248.248 568.62 248.812 567.468 248.812C565.752 248.812 564.612 247.48 564.612 245.812C564.612 244.024 565.752 242.776 567.468 242.776C568.572 242.788 569.508 243.268 569.928 244.312H571.272C570.828 242.416 569.124 241.504 567.48 241.504C565.188 241.504 563.208 243.1 563.208 245.812ZM574.379 242.836V250H575.747V242.836H578.183V241.6H571.943V242.836H574.379Z" fill="#ACACAC"/>
<path d="M619.464 250.012H619.944V241.6H618.552V244.66L618.648 247.228L613.548 241.576H613.044V250H614.424V246.952L614.328 244.288L619.464 250.012ZM630.096 245.8C630.096 243.064 628.116 241.456 625.824 241.456C623.544 241.456 621.54 243.064 621.54 245.8C621.54 248.536 623.496 250.144 625.8 250.144C628.332 250.144 630.096 248.356 630.096 245.8ZM622.956 245.8C622.956 243.856 624.252 242.764 625.836 242.764C627.408 242.764 628.704 243.88 628.704 245.8C628.704 247.756 627.396 248.824 625.824 248.824C624.24 248.824 622.956 247.756 622.956 245.8ZM634.371 247.612L633.219 244.504L632.019 241.6H630.531V241.804L634.095 250.072H634.671L638.199 241.804V241.6H636.723L635.511 244.564L634.407 247.612H634.371Z" fill="#ACACAC"/>
<path d="M673.341 241.612V250H676.377C679.017 250 680.481 247.996 680.481 245.788C680.481 243.58 678.993 241.612 676.377 241.612H673.341ZM674.733 248.728V242.872H676.365C678.081 242.872 679.089 244.216 679.089 245.8C679.089 247.384 678.093 248.728 676.353 248.728H674.733ZM687.207 241.6H682.095V250H687.279V248.728H683.499V246.28H687.003V245.044H683.499V242.824H687.207V241.6ZM688.435 245.812C688.435 248.512 690.415 250.084 692.695 250.084C694.399 250.084 696.127 249.184 696.547 247.132H695.191C694.819 248.248 693.847 248.812 692.695 248.812C690.979 248.812 689.839 247.48 689.839 245.812C689.839 244.024 690.979 242.776 692.695 242.776C693.799 242.788 694.735 243.268 695.155 244.312H696.499C696.055 242.416 694.351 241.504 692.707 241.504C690.415 241.504 688.435 243.1 688.435 245.812Z" fill="#707070"/>
<path d="M33.1475 1L33.1475 229" stroke="#006685" stroke-opacity="0.2" stroke-dasharray="2 2"/>
<path d="M93.8491 1L93.8491 229" stroke="#006685" stroke-opacity="0.2" stroke-dasharray="2 2"/>
<path d="M154.546 1L154.546 229" stroke="#006685" stroke-opacity="0.2" stroke-dasharray="2 2"/>
<path d="M215.248 1L215.248 229" stroke="#006685" stroke-opacity="0.2" stroke-dasharray="2 2"/>
<path d="M275.95 1L275.95 229" stroke="#006685" stroke-opacity="0.2" stroke-dasharray="2 2"/>
<path d="M336.652 1L336.652 229" stroke="#006685" stroke-opacity="0.2" stroke-dasharray="2 2"/>
<path d="M397.349 1L397.349 229" stroke="#006685" stroke-opacity="0.2" stroke-dasharray="2 2"/>
<path d="M458.05 1L458.05 229" stroke="#006685" stroke-opacity="0.2" stroke-dasharray="2 2"/>
<path d="M518.752 1L518.752 229" stroke="#006685" stroke-opacity="0.2" stroke-dasharray="2 2"/>
<path d="M579.454 1L579.454 229" stroke="#006685" stroke-opacity="0.2" stroke-dasharray="2 2"/>
<path d="M640.151 1L640.151 229" stroke="#006685" stroke-opacity="0.2" stroke-dasharray="2 2"/>
<path d="M700.853 1L700.853 229" stroke="#006685" stroke-opacity="0.2" stroke-dasharray="2 2"/>
<path d="M1.88794 229.636C1.98394 231.22 3.15994 232.144 4.69594 232.144C6.54394 232.144 7.61194 230.884 7.61194 229.324C7.61194 228.088 6.80794 226.912 5.41594 226.852L7.53994 223.828V223.612H2.22394V224.74H5.60794L3.71194 227.56V227.8C4.86394 227.512 6.29194 227.932 6.29194 229.336C6.29194 230.332 5.64394 230.932 4.67194 230.932C3.80794 230.932 3.20794 230.488 3.12394 229.636H1.88794ZM12.198 223.468C10.458 223.468 9.066 224.56 9.066 226.36V229.264C9.066 231.076 10.458 232.156 12.198 232.156C13.914 232.156 15.306 231.076 15.306 229.264V226.36C15.306 224.56 13.914 223.468 12.198 223.468ZM12.198 230.92C11.334 230.92 10.65 230.5 10.47 229.696C10.422 229.456 10.386 229.192 10.386 228.904V226.732C10.386 226.444 10.422 226.18 10.47 225.94C10.65 225.124 11.334 224.692 12.198 224.692C13.062 224.692 13.734 225.124 13.914 225.94C13.962 226.18 13.998 226.444 13.998 226.732V228.904C13.998 229.192 13.962 229.456 13.914 229.696C13.734 230.5 13.062 230.92 12.198 230.92ZM20.073 223.468C18.333 223.468 16.941 224.56 16.941 226.36V229.264C16.941 231.076 18.333 232.156 20.073 232.156C21.789 232.156 23.181 231.076 23.181 229.264V226.36C23.181 224.56 21.789 223.468 20.073 223.468ZM20.073 230.92C19.209 230.92 18.525 230.5 18.345 229.696C18.297 229.456 18.261 229.192 18.261 228.904V226.732C18.261 226.444 18.297 226.18 18.345 225.94C18.525 225.124 19.209 224.692 20.073 224.692C20.937 224.692 21.609 225.124 21.789 225.94C21.837 226.18 21.873 226.444 21.873 226.732V228.904C21.873 229.192 21.837 229.456 21.789 229.696C21.609 230.5 20.937 230.92 20.073 230.92Z" fill="#707070"/>
<path d="M6.849 193.236H7.665V192.096H6.849V186.6H5.421L1.449 192.612V193.236H5.577V195H6.849V193.236ZM5.733 188.232L5.661 190.284V192.144H3.093L5.709 188.232H5.733ZM12.198 186.468C10.458 186.468 9.066 187.56 9.066 189.36V192.264C9.066 194.076 10.458 195.156 12.198 195.156C13.914 195.156 15.306 194.076 15.306 192.264V189.36C15.306 187.56 13.914 186.468 12.198 186.468ZM12.198 193.92C11.334 193.92 10.65 193.5 10.47 192.696C10.422 192.456 10.386 192.192 10.386 191.904V189.732C10.386 189.444 10.422 189.18 10.47 188.94C10.65 188.124 11.334 187.692 12.198 187.692C13.062 187.692 13.734 188.124 13.914 188.94C13.962 189.18 13.998 189.444 13.998 189.732V191.904C13.998 192.192 13.962 192.456 13.914 192.696C13.734 193.5 13.062 193.92 12.198 193.92ZM20.073 186.468C18.333 186.468 16.941 187.56 16.941 189.36V192.264C16.941 194.076 18.333 195.156 20.073 195.156C21.789 195.156 23.181 194.076 23.181 192.264V189.36C23.181 187.56 21.789 186.468 20.073 186.468ZM20.073 193.92C19.209 193.92 18.525 193.5 18.345 192.696C18.297 192.456 18.261 192.192 18.261 191.904V189.732C18.261 189.444 18.297 189.18 18.345 188.94C18.525 188.124 19.209 187.692 20.073 187.692C20.937 187.692 21.609 188.124 21.789 188.94C21.837 189.18 21.873 189.444 21.873 189.732V191.904C21.873 192.192 21.837 192.456 21.789 192.696C21.609 193.5 20.937 193.92 20.073 193.92Z" fill="#ACACAC"/>
<path d="M3.37706 150.776H7.19306V149.6H2.23706V153.8C2.84906 153.656 3.66506 153.524 4.42106 153.56C5.50106 153.62 6.42506 154.04 6.40106 155.348C6.36506 156.488 5.58506 156.98 4.74506 156.98C3.91706 156.98 3.30506 156.56 3.22106 155.684H1.93706C2.06906 157.244 3.19706 158.144 4.70906 158.144C6.66506 158.144 7.69706 156.824 7.69706 155.312C7.69706 153.26 6.26906 152.552 4.50506 152.516C4.12106 152.516 3.74906 152.552 3.37706 152.636V150.776ZM12.198 149.468C10.458 149.468 9.066 150.56 9.066 152.36V155.264C9.066 157.076 10.458 158.156 12.198 158.156C13.914 158.156 15.306 157.076 15.306 155.264V152.36C15.306 150.56 13.914 149.468 12.198 149.468ZM12.198 156.92C11.334 156.92 10.65 156.5 10.47 155.696C10.422 155.456 10.386 155.192 10.386 154.904V152.732C10.386 152.444 10.422 152.18 10.47 151.94C10.65 151.124 11.334 150.692 12.198 150.692C13.062 150.692 13.734 151.124 13.914 151.94C13.962 152.18 13.998 152.444 13.998 152.732V154.904C13.998 155.192 13.962 155.456 13.914 155.696C13.734 156.5 13.062 156.92 12.198 156.92ZM20.073 149.468C18.333 149.468 16.941 150.56 16.941 152.36V155.264C16.941 157.076 18.333 158.156 20.073 158.156C21.789 158.156 23.181 157.076 23.181 155.264V152.36C23.181 150.56 21.789 149.468 20.073 149.468ZM20.073 156.92C19.209 156.92 18.525 156.5 18.345 155.696C18.297 155.456 18.261 155.192 18.261 154.904V152.732C18.261 152.444 18.297 152.18 18.345 151.94C18.525 151.124 19.209 150.692 20.073 150.692C20.937 150.692 21.609 151.124 21.789 151.94C21.837 152.18 21.873 152.444 21.873 152.732V154.904C21.873 155.192 21.837 155.456 21.789 155.696C21.609 156.5 20.937 156.92 20.073 156.92Z" fill="#ACACAC"/>
<path d="M4.69013 112.552L2.14613 116.584C1.82213 117.076 1.60613 117.712 1.60613 118.324C1.60613 120.196 2.98613 121.12 4.71413 121.12C6.45413 121.12 7.83413 120.196 7.83413 118.324C7.83413 116.584 6.59813 115.588 4.94213 115.624C4.67813 115.624 4.42613 115.684 4.18613 115.816L6.23813 112.552H4.69013ZM4.71413 119.932C3.70613 119.932 2.97413 119.368 2.97413 118.324C2.97413 117.28 3.69413 116.704 4.71413 116.704C5.72213 116.704 6.45413 117.28 6.45413 118.324C6.45413 119.368 5.73413 119.932 4.71413 119.932ZM12.198 112.468C10.458 112.468 9.066 113.56 9.066 115.36V118.264C9.066 120.076 10.458 121.156 12.198 121.156C13.914 121.156 15.306 120.076 15.306 118.264V115.36C15.306 113.56 13.914 112.468 12.198 112.468ZM12.198 119.92C11.334 119.92 10.65 119.5 10.47 118.696C10.422 118.456 10.386 118.192 10.386 117.904V115.732C10.386 115.444 10.422 115.18 10.47 114.94C10.65 114.124 11.334 113.692 12.198 113.692C13.062 113.692 13.734 114.124 13.914 114.94C13.962 115.18 13.998 115.444 13.998 115.732V117.904C13.998 118.192 13.962 118.456 13.914 118.696C13.734 119.5 13.062 119.92 12.198 119.92ZM20.073 112.468C18.333 112.468 16.941 113.56 16.941 115.36V118.264C16.941 120.076 18.333 121.156 20.073 121.156C21.789 121.156 23.181 120.076 23.181 118.264V115.36C23.181 113.56 21.789 112.468 20.073 112.468ZM20.073 119.92C19.209 119.92 18.525 119.5 18.345 118.696C18.297 118.456 18.261 118.192 18.261 117.904V115.732C18.261 115.444 18.297 115.18 18.345 114.94C18.525 114.124 19.209 113.692 20.073 113.692C20.937 113.692 21.609 114.124 21.789 114.94C21.837 115.18 21.873 115.444 21.873 115.732V117.904C21.873 118.192 21.837 118.456 21.789 118.696C21.609 119.5 20.937 119.92 20.073 119.92Z" fill="#ACACAC"/>
<path d="M8.12644 75.6H2.31844V76.836H6.23044L2.97844 84H4.39444L8.12644 75.804V75.6ZM12.198 75.468C10.458 75.468 9.066 76.56 9.066 78.36V81.264C9.066 83.076 10.458 84.156 12.198 84.156C13.914 84.156 15.306 83.076 15.306 81.264V78.36C15.306 76.56 13.914 75.468 12.198 75.468ZM12.198 82.92C11.334 82.92 10.65 82.5 10.47 81.696C10.422 81.456 10.386 81.192 10.386 80.904V78.732C10.386 78.444 10.422 78.18 10.47 77.94C10.65 77.124 11.334 76.692 12.198 76.692C13.062 76.692 13.734 77.124 13.914 77.94C13.962 78.18 13.998 78.444 13.998 78.732V80.904C13.998 81.192 13.962 81.456 13.914 81.696C13.734 82.5 13.062 82.92 12.198 82.92ZM20.073 75.468C18.333 75.468 16.941 76.56 16.941 78.36V81.264C16.941 83.076 18.333 84.156 20.073 84.156C21.789 84.156 23.181 83.076 23.181 81.264V78.36C23.181 76.56 21.789 75.468 20.073 75.468ZM20.073 82.92C19.209 82.92 18.525 82.5 18.345 81.696C18.297 81.456 18.261 81.192 18.261 80.904V78.732C18.261 78.444 18.297 78.18 18.345 77.94C18.525 77.124 19.209 76.692 20.073 76.692C20.937 76.692 21.609 77.124 21.789 77.94C21.837 78.18 21.873 78.444 21.873 78.732V80.904C21.873 81.192 21.837 81.456 21.789 81.696C21.609 82.5 20.937 82.92 20.073 82.92Z" fill="#ACACAC"/>
<path d="M6.14831 42.272C6.72431 41.924 7.13231 41.372 7.13231 40.652C7.13231 39.428 6.10031 38.468 4.54031 38.468C2.95631 38.468 1.92431 39.464 1.96031 40.676C1.96031 41.396 2.34431 41.936 2.90831 42.272C2.00831 42.692 1.42031 43.472 1.42031 44.492C1.42031 45.968 2.65631 47.132 4.54031 47.132C6.43631 47.132 7.64831 45.968 7.64831 44.468C7.63631 43.46 7.04831 42.692 6.14831 42.272ZM4.52831 41.852C3.79631 41.852 3.18431 41.408 3.18431 40.724C3.18431 40.016 3.77231 39.572 4.54031 39.572C5.27231 39.572 5.88431 40.004 5.88431 40.712C5.88431 41.42 5.29631 41.852 4.52831 41.852ZM4.54031 45.956C3.58031 45.956 2.78831 45.368 2.78831 44.456C2.78831 43.508 3.56831 42.884 4.52831 42.884C5.50031 42.884 6.29231 43.484 6.29231 44.432C6.29231 45.356 5.50031 45.956 4.54031 45.956ZM12.198 38.468C10.458 38.468 9.066 39.56 9.066 41.36V44.264C9.066 46.076 10.458 47.156 12.198 47.156C13.914 47.156 15.306 46.076 15.306 44.264V41.36C15.306 39.56 13.914 38.468 12.198 38.468ZM12.198 45.92C11.334 45.92 10.65 45.5 10.47 44.696C10.422 44.456 10.386 44.192 10.386 43.904V41.732C10.386 41.444 10.422 41.18 10.47 40.94C10.65 40.124 11.334 39.692 12.198 39.692C13.062 39.692 13.734 40.124 13.914 40.94C13.962 41.18 13.998 41.444 13.998 41.732V43.904C13.998 44.192 13.962 44.456 13.914 44.696C13.734 45.5 13.062 45.92 12.198 45.92ZM20.073 38.468C18.333 38.468 16.941 39.56 16.941 41.36V44.264C16.941 46.076 18.333 47.156 20.073 47.156C21.789 47.156 23.181 46.076 23.181 44.264V41.36C23.181 39.56 21.789 38.468 20.073 38.468ZM20.073 45.92C19.209 45.92 18.525 45.5 18.345 44.696C18.297 44.456 18.261 44.192 18.261 43.904V41.732C18.261 41.444 18.297 41.18 18.345 40.94C18.525 40.124 19.209 39.692 20.073 39.692C20.937 39.692 21.609 40.124 21.789 40.94C21.837 41.18 21.873 41.444 21.873 41.732V43.904C21.873 44.192 21.837 44.456 21.789 44.696C21.609 45.5 20.937 45.92 20.073 45.92Z" fill="#ACACAC"/>
<path d="M4.66528 10L7.19728 5.98C7.56928 5.416 7.76128 4.876 7.76128 4.204C7.76128 2.332 6.38128 1.408 4.65328 1.408C2.91328 1.408 1.53328 2.332 1.53328 4.204C1.53328 5.944 2.78128 6.94 4.46128 6.904C4.73728 6.904 5.02528 6.832 5.25328 6.7L3.14128 10H4.66528ZM4.65328 2.596C5.66128 2.596 6.38128 3.16 6.38128 4.204C6.38128 5.248 5.66128 5.824 4.65328 5.824C3.64528 5.824 2.91328 5.248 2.91328 4.204C2.91328 3.16 3.63328 2.596 4.65328 2.596ZM12.198 1.468C10.458 1.468 9.066 2.56 9.066 4.36V7.264C9.066 9.076 10.458 10.156 12.198 10.156C13.914 10.156 15.306 9.076 15.306 7.264V4.36C15.306 2.56 13.914 1.468 12.198 1.468ZM12.198 8.92C11.334 8.92 10.65 8.5 10.47 7.696C10.422 7.456 10.386 7.192 10.386 6.904V4.732C10.386 4.444 10.422 4.18 10.47 3.94C10.65 3.124 11.334 2.692 12.198 2.692C13.062 2.692 13.734 3.124 13.914 3.94C13.962 4.18 13.998 4.444 13.998 4.732V6.904C13.998 7.192 13.962 7.456 13.914 7.696C13.734 8.5 13.062 8.92 12.198 8.92ZM20.073 1.468C18.333 1.468 16.941 2.56 16.941 4.36V7.264C16.941 9.076 18.333 10.156 20.073 10.156C21.789 10.156 23.181 9.076 23.181 7.264V4.36C23.181 2.56 21.789 1.468 20.073 1.468ZM20.073 8.92C19.209 8.92 18.525 8.5 18.345 7.696C18.297 7.456 18.261 7.192 18.261 6.904V4.732C18.261 4.444 18.297 4.18 18.345 3.94C18.525 3.124 19.209 2.692 20.073 2.692C20.937 2.692 21.609 3.124 21.789 3.94C21.837 4.18 21.873 4.444 21.873 4.732V6.904C21.873 7.192 21.837 7.456 21.789 7.696C21.609 8.5 20.937 8.92 20.073 8.92Z" fill="#707070"/>
<path d="M33.1475 1.00006L700.853 0.999992" stroke="#006685" stroke-opacity="0.2" stroke-dasharray="2 2"/>
<path d="M33.1475 38.6621L700.853 38.662" stroke="#006685" stroke-opacity="0.2" stroke-dasharray="2 2"/>
<path d="M33.1475 77.9629L700.853 77.9628" stroke="#006685" stroke-opacity="0.2" stroke-dasharray="2 2"/>
<path d="M33.1475 115.625L700.853 115.625" stroke="#006685" stroke-opacity="0.2" stroke-dasharray="2 2"/>
<path d="M33.1475 153.287L700.853 153.287" stroke="#006685" stroke-opacity="0.2" stroke-dasharray="2 2"/>
<path d="M33.1475 192.588L700.853 192.588" stroke="#006685" stroke-opacity="0.2" stroke-dasharray="2 2"/>
<path d="M33.1475 230.25L700.853 230.25" stroke="#006685" stroke-opacity="0.2" stroke-dasharray="2 2"/>
<path d="M32 230H702" stroke="#9EBFD2" stroke-width="1.6"/>
<path d="M347 113V107H341C341 107 347 107 347 113Z" fill="#00A6CA"/>
<circle cx="342" cy="116" r="6" fill="#006685" stroke="#F1F6FF" stroke-width="2"/>
<circle cx="395" cy="78" r="8" fill="#7D7D7D"/>
<circle cx="338.5" cy="115.5" r="12.5" fill="#7D7D7D"/>
<path d="M395.466 80.382C395.466 78.394 397.664 77.666 397.664 75.902C397.664 73.956 396.208 72.976 394.528 73.018C392.862 73.06 391.476 73.998 391.476 75.986H393.198C393.268 75.258 393.898 74.894 394.514 74.894C395.564 74.894 395.844 75.818 395.508 76.56C394.948 77.806 393.618 78.184 393.618 80.382H395.466ZM394.57 83.196C395.228 83.196 395.704 82.762 395.704 82.132C395.704 81.474 395.228 81.054 394.57 81.054C393.912 81.054 393.408 81.474 393.408 82.132C393.408 82.762 393.912 83.196 394.57 83.196Z" fill="white"/>
<path d="M339.978 118.909C339.978 115.803 343.413 114.666 343.413 111.909C343.413 108.869 341.138 107.337 338.513 107.403C335.909 107.469 333.744 108.934 333.744 112.041H336.434C336.544 110.903 337.528 110.334 338.491 110.334C340.131 110.334 340.569 111.778 340.044 112.937C339.169 114.884 337.091 115.475 337.091 118.909H339.978ZM338.578 123.306C339.606 123.306 340.35 122.628 340.35 121.644C340.35 120.616 339.606 119.959 338.578 119.959C337.55 119.959 336.763 120.616 336.763 121.644C336.763 122.628 337.55 123.306 338.578 123.306Z" fill="white"/>
<circle cx="395" cy="153" r="8" fill="#7D7D7D"/>
<path d="M395.466 155.382C395.466 153.394 397.664 152.666 397.664 150.902C397.664 148.956 396.208 147.976 394.528 148.018C392.862 148.06 391.476 148.998 391.476 150.986H393.198C393.268 150.258 393.898 149.894 394.514 149.894C395.564 149.894 395.844 150.818 395.508 151.56C394.948 152.806 393.618 153.184 393.618 155.382H395.466ZM394.57 158.196C395.228 158.196 395.704 157.762 395.704 157.132C395.704 156.474 395.228 156.054 394.57 156.054C393.912 156.054 393.408 156.474 393.408 157.132C393.408 157.762 393.912 158.196 394.57 158.196Z" fill="white"/>
<path d="M351 116L387 83" stroke="#3BB012" stroke-width="3" stroke-dasharray="3 3"/>
<path d="M387 148L351 115" stroke="#D74025" stroke-width="3" stroke-dasharray="3 3"/>
</svg>
