<svg width="164" height="119" viewBox="0 0 164 119" fill="none" xmlns="http://www.w3.org/2000/svg">
<path d="M0.701159 94.213C0.797326 95.7998 1.97538 96.7254 3.51406 96.7254C5.36528 96.7254 6.43515 95.4632 6.43515 93.9004C6.43515 92.6623 5.62974 91.4842 4.23531 91.4241L6.36302 88.3949V88.1785H1.03774V89.3084H4.42765L2.52834 92.1334V92.3738C3.68235 92.0853 5.11284 92.506 5.11284 93.9125C5.11284 94.9102 4.46371 95.5113 3.49002 95.5113C2.62451 95.5113 2.02346 95.0665 1.93932 94.213H0.701159ZM11.0292 88.0342C9.28618 88.0342 7.89175 89.1281 7.89175 90.9313V93.8403C7.89175 95.6555 9.28618 96.7374 11.0292 96.7374C12.7482 96.7374 14.1426 95.6555 14.1426 93.8403V90.9313C14.1426 89.1281 12.7482 88.0342 11.0292 88.0342ZM11.0292 95.4992C10.1637 95.4992 9.47851 95.0785 9.2982 94.2731C9.25011 94.0327 9.21405 93.7682 9.21405 93.4797V91.3039C9.21405 91.0154 9.25011 90.751 9.2982 90.5105C9.47851 89.6931 10.1637 89.2604 11.0292 89.2604C11.8947 89.2604 12.5679 89.6931 12.7482 90.5105C12.7963 90.751 12.8324 91.0154 12.8324 91.3039V93.4797C12.8324 93.7682 12.7963 94.0327 12.7482 94.2731C12.5679 95.0785 11.8947 95.4992 11.0292 95.4992ZM18.918 88.0342C17.1749 88.0342 15.7805 89.1281 15.7805 90.9313V93.8403C15.7805 95.6555 17.1749 96.7374 18.918 96.7374C20.6369 96.7374 22.0314 95.6555 22.0314 93.8403V90.9313C22.0314 89.1281 20.6369 88.0342 18.918 88.0342ZM18.918 95.4992C18.0524 95.4992 17.3673 95.0785 17.1869 94.2731C17.1389 94.0327 17.1028 93.7682 17.1028 93.4797V91.3039C17.1028 91.0154 17.1389 90.751 17.1869 90.5105C17.3673 89.6931 18.0524 89.2604 18.918 89.2604C19.7835 89.2604 20.4566 89.6931 20.6369 90.5105C20.685 90.751 20.7211 91.0154 20.7211 91.3039V93.4797C20.7211 93.7682 20.685 94.0327 20.6369 94.2731C20.4566 95.0785 19.7835 95.4992 18.918 95.4992Z" fill="#ACACAC"/>
<path d="M144.411 96.5811L146.948 92.5541C147.32 91.9891 147.513 91.4482 147.513 90.775C147.513 88.8997 146.13 87.9741 144.399 87.9741C142.656 87.9741 141.274 88.8997 141.274 90.775C141.274 92.518 142.524 93.5158 144.207 93.4797C144.483 93.4797 144.772 93.4076 145 93.2754L142.885 96.5811H144.411ZM144.399 89.1642C145.409 89.1642 146.13 89.7292 146.13 90.775C146.13 91.8208 145.409 92.3978 144.399 92.3978C143.389 92.3978 142.656 91.8208 142.656 90.775C142.656 89.7292 143.377 89.1642 144.399 89.1642ZM151.957 88.0342C150.214 88.0342 148.82 89.1281 148.82 90.9313V93.8403C148.82 95.6555 150.214 96.7374 151.957 96.7374C153.676 96.7374 155.071 95.6555 155.071 93.8403V90.9313C155.071 89.1281 153.676 88.0342 151.957 88.0342ZM151.957 95.4992C151.092 95.4992 150.406 95.0785 150.226 94.2731C150.178 94.0327 150.142 93.7682 150.142 93.4797V91.3039C150.142 91.0154 150.178 90.751 150.226 90.5105C150.406 89.6931 151.092 89.2604 151.957 89.2604C152.823 89.2604 153.496 89.6931 153.676 90.5105C153.724 90.751 153.76 91.0154 153.76 91.3039V93.4797C153.76 93.7682 153.724 94.0327 153.676 94.2731C153.496 95.0785 152.823 95.4992 151.957 95.4992ZM159.846 88.0342C158.103 88.0342 156.708 89.1281 156.708 90.9313V93.8403C156.708 95.6555 158.103 96.7374 159.846 96.7374C161.565 96.7374 162.959 95.6555 162.959 93.8403V90.9313C162.959 89.1281 161.565 88.0342 159.846 88.0342ZM159.846 95.4992C158.98 95.4992 158.295 95.0785 158.115 94.2731C158.067 94.0327 158.031 93.7682 158.031 93.4797V91.3039C158.031 91.0154 158.067 90.751 158.115 90.5105C158.295 89.6931 158.98 89.2604 159.846 89.2604C160.711 89.2604 161.385 89.6931 161.565 90.5105C161.613 90.751 161.649 91.0154 161.649 91.3039V93.4797C161.649 93.7682 161.613 94.0327 161.565 94.2731C161.385 95.0785 160.711 95.4992 159.846 95.4992Z" fill="#ACACAC"/>
<path d="M69.2331 95.6H53.3611V99.76H62.8011L54.8651 118H59.6971L69.2331 96.272V95.6ZM70.4854 111.44C70.6454 115.76 73.8774 118.416 78.0694 118.416C83.1254 118.416 85.9414 114.736 85.9414 110.768C85.9414 107.664 84.3094 104.72 80.7254 104.112L85.5894 96.304V95.632H71.3494V99.44H79.2534L75.1254 106.544V107.216C78.0054 106.704 81.3334 107.216 81.4294 110.8C81.3974 112.848 80.0854 114.288 78.0054 114.288C76.0854 114.288 74.8054 113.328 74.6774 111.44H70.4854ZM96.6654 95.44L90.1694 106C89.3054 107.376 88.7294 109.168 88.7294 110.8C88.7294 115.92 92.3774 118.352 97.1454 118.352C101.913 118.352 105.625 115.92 105.625 110.8C105.625 106.192 102.457 103.408 97.9454 103.568C97.5294 103.568 97.1454 103.664 96.7934 103.856L101.913 95.44H96.6654ZM97.1454 114.288C94.8414 114.288 93.4014 113.072 93.4014 110.8C93.4014 108.496 94.8414 107.216 97.1454 107.216C99.4494 107.216 100.857 108.496 100.857 110.8C100.857 113.072 99.4494 114.288 97.1454 114.288Z" fill="#2C2C2C"/>
<path d="M103.447 81.8254C103.447 76.1375 101.188 70.6825 97.1658 66.6606C93.1438 62.6386 87.6889 60.3791 82.001 60.3791C76.3131 60.3791 70.8581 62.6386 66.8362 66.6606C62.8142 70.6825 60.5547 76.1375 60.5547 81.8254L82.001 81.8254H103.447Z" fill="#EDEDED"/>
<path d="M97.359 32.0577L79.1075 71.4887C78.4263 72.9604 79.1273 74.6931 80.6515 75.3049C82.1756 75.9166 83.9123 75.1623 84.4764 73.6435L99.589 32.9528C99.8109 32.3553 99.5122 31.6925 98.9126 31.4519C98.313 31.2112 97.6269 31.4788 97.359 32.0577Z" fill="#2C2C2C"/>
<path d="M0 82.0004C1.90126e-06 60.2526 8.63931 39.3954 24.0174 24.0174C39.3954 8.63931 60.2526 -2.59341e-07 82.0004 0V8.20004C62.4274 8.20004 43.6559 15.9754 29.8157 29.8157C15.9754 43.6559 8.20005 62.4274 8.20004 82.0004H0Z" fill="#E15825"/>
<path d="M83.6774 0.0171814C93.8371 0.224934 103.87 2.3193 113.264 6.19355L110.138 13.7742C101.683 10.2874 92.6535 8.40249 83.5098 8.21551L83.6774 0.0171814Z" fill="#F18200"/>
<path d="M114.778 6.83502C124.092 10.8969 132.571 16.6547 139.782 23.8151L134.004 29.6336C127.514 23.1892 119.883 18.0072 111.5 14.3515L114.778 6.83502Z" fill="#FCD800"/>
<path d="M140.887 24.9352C147.958 32.2326 153.612 40.7809 157.56 50.1446L150.004 53.3303C146.451 44.903 141.363 37.2095 134.998 30.6418L140.887 24.9352Z" fill="#A9D161"/>
<path d="M158.29 51.9353C162.016 61.3894 163.952 71.4537 164 81.6155L155.8 81.6541C155.757 72.5085 154.014 63.4506 150.661 54.9419L158.29 51.9353Z" fill="#009900"/>
</svg>