<svg width="333" height="169" viewBox="0 0 333 169" fill="none" xmlns="http://www.w3.org/2000/svg">
<path d="M5.80823 0.357277H327.191C330.151 0.357277 332.55 2.75665 332.55 5.71644V163.284C332.55 166.243 330.151 168.643 327.191 168.643H5.80822C2.84843 168.643 0.449074 166.243 0.449074 163.284V5.71643C0.449074 2.75665 2.84845 0.357277 5.80823 0.357277Z" fill="white" stroke="#B8C9E9" stroke-width="0.714555"/>
<path d="M29.6245 24.6758C30.417 24.6758 31.0983 24.0919 31.0983 23.3133C31.0983 22.4652 30.417 21.9368 29.6245 21.9368C28.8459 21.9368 28.1786 22.4652 28.1786 23.3133C28.1786 24.0919 28.8459 24.6758 29.6245 24.6758ZM40.7595 23.4106C40.7595 26.4694 42.9701 28.3881 45.6813 28.3881C47.6278 28.3881 49.5048 27.3453 50.0609 25.1625H48.9347C48.4203 26.5667 47.1551 27.3175 45.6674 27.3175C43.4289 27.3175 41.9413 25.6074 41.9413 23.4106C41.9413 21.1443 43.4429 19.462 45.6813 19.5037C47.0856 19.5037 48.2813 20.1572 48.8791 21.478H50.0053C49.4214 19.4481 47.5583 18.4332 45.6813 18.4332C42.9423 18.3914 40.7595 20.3657 40.7595 23.4106ZM51.8784 19.3647C51.8784 20.2962 53.2548 20.2962 53.2548 19.3647C53.2548 18.4471 51.8784 18.4471 51.8784 19.3647ZM53.1019 21.631H52.0174V28.2769H53.1019V21.631ZM57.306 19.5176H56.4023L56.291 21.6032H54.7894V22.3261L56.2215 22.3957V25.7047C56.2215 28.2351 57.8065 28.8886 60.1006 28.1517L59.9755 27.2758C58.3627 27.8737 57.306 27.387 57.306 25.6769V22.3957H59.7669V21.6032H57.306V19.5176ZM67.8017 21.7005V21.5893H66.7034L65.4799 24.5924L64.4649 27.2202H64.451L63.3526 24.5646L62.0179 21.5893H60.8639V21.7005L63.9366 28.3325L63.5473 29.2779C63.1023 30.3902 62.574 31.2244 61.2949 30.6266L61.1419 31.433C63.3387 32.3923 64.1034 30.5431 64.8542 28.7496L67.8017 21.7005Z" fill="black"/>
<path d="M80.8941 24.6758C81.6866 24.6758 82.3678 24.0919 82.3678 23.3133C82.3678 22.4652 81.6866 21.9368 80.8941 21.9368C80.1155 21.9368 79.4481 22.4652 79.4481 23.3133C79.4481 24.0919 80.1155 24.6758 80.8941 24.6758ZM94.6985 27.3453V19.462H96.2696V18.5444H91.9595V19.462H93.5306V27.3453H91.8483V28.2769H96.3808V27.3453H94.6985ZM104.343 28.2769V24.3004C104.343 22.6598 103.426 21.4363 101.66 21.4363C100.714 21.4363 99.8942 21.6727 99.2963 22.5764C99.2963 21.2834 98.2675 21.4502 97.4889 21.5614L97.5028 22.4235C98.2118 22.3539 98.2814 22.5903 98.2814 23.494V28.2769H99.3658V24.2587C99.3658 23.1325 100.228 22.34 101.368 22.34C102.466 22.34 103.245 23.0908 103.245 24.3004V28.2769H104.343ZM112.861 23.6192C112.444 22.1593 111.123 21.4224 109.761 21.4085C108.009 21.3946 106.202 22.5625 106.202 24.8983C106.202 27.2063 107.981 28.3881 109.733 28.3881C111.137 28.3881 112.528 27.6095 112.931 26.0245H111.874C111.513 26.9699 110.637 27.4287 109.747 27.4287C108.537 27.4287 107.3 26.5528 107.3 24.8983C107.3 23.2299 108.579 22.3818 109.803 22.3818C110.651 22.3818 111.457 22.785 111.819 23.6192H112.861ZM121.432 24.9122C121.432 20.2545 114.369 20.2545 114.369 24.9122C114.369 29.5699 121.432 29.5421 121.432 24.9122ZM115.467 24.9122C115.467 21.5058 120.347 21.5058 120.347 24.9122C120.347 28.3325 115.467 28.3325 115.467 24.9122ZM133.801 28.2769V24.2865C133.801 22.7432 133.273 21.4363 131.479 21.4363C130.367 21.4363 129.352 21.8951 128.921 22.8823C128.657 21.9368 127.961 21.4363 126.849 21.4363C125.89 21.4363 125.07 21.7422 124.583 22.632C124.583 21.3112 123.749 21.3946 122.803 21.5475L122.817 22.34C123.526 22.2705 123.596 22.5347 123.596 23.4245V28.2769H124.68V24.3839C124.68 23.1604 125.389 22.34 126.557 22.34C127.725 22.34 128.114 23.216 128.114 24.3422V28.2769H129.199V24.37C129.199 23.1743 130.061 22.34 131.173 22.34C132.299 22.34 132.689 23.216 132.689 24.2865V28.2769H133.801ZM139.133 21.4224C137.298 21.4224 135.768 22.632 135.699 24.7454C135.629 27.0255 137.2 28.4298 139.425 28.4298C140.245 28.4298 141.093 28.2351 141.886 27.8597L141.719 27.0394C140.94 27.3592 140.217 27.5261 139.453 27.5261C137.937 27.5261 136.714 26.5806 136.783 25.0373H142.108C142.484 22.8267 141.413 21.4363 139.133 21.4224ZM139.133 22.2844C140.328 22.2844 141.26 22.9379 141.19 24.2031H136.825C137.006 22.9935 137.909 22.2844 139.133 22.2844ZM149.772 19.5871V28.2769H150.898V19.5871H153.901V18.5444H146.769V19.5871H149.772ZM160.461 21.7005V21.5893H159.363L158.14 24.5924L157.125 27.2202H157.111L156.012 24.5646L154.678 21.5893H153.524V21.7005L156.596 28.3325L156.207 29.2779C155.762 30.3902 155.234 31.2244 153.955 30.6266L153.802 31.433C155.998 32.3923 156.763 30.5431 157.514 28.7496L160.461 21.7005ZM163.324 22.6876C163.366 21.631 162.643 21.3807 161.586 21.5614L161.6 22.3679C162.49 22.2566 162.392 22.9518 162.392 23.8138V31.7249H163.477V27.6651C165.868 29.2779 168.802 27.8737 168.802 24.8844C168.802 22.9657 167.731 21.3946 165.771 21.3946C164.812 21.3946 163.949 21.6727 163.324 22.6876ZM163.449 24.6063C163.491 23.4523 164.283 22.3818 165.562 22.3818C167.064 22.3818 167.69 23.5497 167.69 24.8844C167.69 27.3453 165.27 28.0961 163.449 26.6779V24.6063ZM173.775 21.4224C171.94 21.4224 170.41 22.632 170.341 24.7454C170.271 27.0255 171.842 28.4298 174.067 28.4298C174.887 28.4298 175.735 28.2351 176.528 27.8597L176.361 27.0394C175.582 27.3592 174.859 27.5261 174.095 27.5261C172.579 27.5261 171.356 26.5806 171.425 25.0373H176.75C177.126 22.8267 176.055 21.4363 173.775 21.4224ZM173.775 22.2844C174.971 22.2844 175.902 22.9379 175.833 24.2031H171.467C171.648 22.9935 172.551 22.2844 173.775 22.2844Z" fill="black"/>
<path d="M193.861 24.6758C194.653 24.6758 195.335 24.0919 195.335 23.3133C195.335 22.4652 194.653 21.9368 193.861 21.9368C193.082 21.9368 192.415 22.4652 192.415 23.3133C192.415 24.0919 193.082 24.6758 193.861 24.6758ZM210.057 23.9668L206.052 18.5305H205.594V28.2769H206.762V21.2556L209.959 25.6491H210.14L213.338 21.2556V28.2769H214.506V18.5305H214.061L210.057 23.9668ZM223.632 24.9122C223.632 20.2545 216.569 20.2545 216.569 24.9122C216.569 29.5699 223.632 29.5421 223.632 24.9122ZM217.667 24.9122C217.667 21.5058 222.547 21.5058 222.547 24.9122C222.547 28.3325 217.667 28.3325 217.667 24.9122ZM231.872 28.2769V24.3004C231.872 22.6598 230.954 21.4363 229.188 21.4363C228.243 21.4363 227.423 21.6727 226.825 22.5764C226.825 21.2834 225.796 21.4502 225.017 21.5614L225.031 22.4235C225.74 22.3539 225.81 22.5903 225.81 23.494V28.2769H226.894V24.2587C226.894 23.1325 227.756 22.34 228.897 22.34C229.995 22.34 230.773 23.0908 230.773 24.3004V28.2769H231.872ZM235.846 19.5176H234.942L234.831 21.6032H233.33V22.3261L234.762 22.3957V25.7047C234.762 28.2351 236.347 28.8886 238.641 28.1517L238.516 27.2758C236.903 27.8737 235.846 27.387 235.846 25.6769V22.3957H238.307V21.6032H235.846V19.5176ZM246.286 28.2769V24.3283C246.286 22.5903 245.424 21.4224 243.589 21.4085C242.546 21.4085 241.893 21.7144 241.295 22.4513V18.1134H240.197V28.2769H241.295V24.37C241.295 23.1325 242.101 22.2983 243.311 22.3122C244.479 22.3122 245.188 23.0491 245.174 24.3283V28.2769H246.286ZM248.525 18.0856V25.8576C248.525 27.9293 249.303 28.6383 251.347 28.3047L251.305 27.4426C249.901 27.6234 249.623 27.1646 249.623 25.8576V18.0856H248.525ZM258.616 21.7005V21.5893H257.517L256.294 24.5924L255.279 27.2202H255.265L254.166 24.5646L252.832 21.5893H251.678V21.7005L254.75 28.3325L254.361 29.2779C253.916 30.3902 253.388 31.2244 252.109 30.6266L251.956 31.433C254.153 32.3923 254.917 30.5431 255.668 28.7496L258.616 21.7005ZM266.169 27.3453V19.462H267.74V18.5444H263.43V19.462H265.001V27.3453H263.319V28.2769H267.852V27.3453H266.169ZM275.814 28.2769V24.3004C275.814 22.6598 274.896 21.4363 273.131 21.4363C272.185 21.4363 271.365 21.6727 270.767 22.5764C270.767 21.2834 269.738 21.4502 268.96 21.5614L268.974 22.4235C269.683 22.3539 269.752 22.5903 269.752 23.494V28.2769H270.837V24.2587C270.837 23.1325 271.699 22.34 272.839 22.34C273.937 22.34 274.716 23.0908 274.716 24.3004V28.2769H275.814ZM284.332 23.6192C283.915 22.1593 282.594 21.4224 281.232 21.4085C279.48 21.3946 277.672 22.5625 277.672 24.8983C277.672 27.2063 279.452 28.3881 281.204 28.3881C282.608 28.3881 283.999 27.6095 284.402 26.0245H283.345C282.984 26.9699 282.108 27.4287 281.218 27.4287C280.008 27.4287 278.771 26.5528 278.771 24.8983C278.771 23.2299 280.05 22.3818 281.273 22.3818C282.122 22.3818 282.928 22.785 283.289 23.6192H284.332ZM292.902 24.9122C292.902 20.2545 285.839 20.2545 285.839 24.9122C285.839 29.5699 292.902 29.5421 292.902 24.9122ZM286.938 24.9122C286.938 21.5058 291.818 21.5058 291.818 24.9122C291.818 28.3325 286.938 28.3325 286.938 24.9122ZM305.272 28.2769V24.2865C305.272 22.7432 304.743 21.4363 302.95 21.4363C301.838 21.4363 300.823 21.8951 300.392 22.8823C300.127 21.9368 299.432 21.4363 298.32 21.4363C297.361 21.4363 296.54 21.7422 296.054 22.632C296.054 21.3112 295.22 21.3946 294.274 21.5475L294.288 22.34C294.997 22.2705 295.067 22.5347 295.067 23.4245V28.2769H296.151V24.3839C296.151 23.1604 296.86 22.34 298.028 22.34C299.196 22.34 299.585 23.216 299.585 24.3422V28.2769H300.67V24.37C300.67 23.1743 301.532 22.34 302.644 22.34C303.77 22.34 304.16 23.216 304.16 24.2865V28.2769H305.272ZM310.604 21.4224C308.768 21.4224 307.239 22.632 307.169 24.7454C307.1 27.0255 308.671 28.4298 310.896 28.4298C311.716 28.4298 312.564 28.2351 313.356 27.8597L313.19 27.0394C312.411 27.3592 311.688 27.5261 310.923 27.5261C309.408 27.5261 308.184 26.5806 308.254 25.0373H313.579C313.954 22.8267 312.884 21.4363 310.604 21.4224ZM310.604 22.2844C311.799 22.2844 312.731 22.9379 312.661 24.2031H308.296C308.476 22.9935 309.38 22.2844 310.604 22.2844Z" fill="black"/>
<path d="M140.864 49.0361H198.216V102.043H140.864V49.0361Z" fill="#E7B92E"/>
<path d="M22.6846 55.9879C22.6846 52.1486 25.797 49.0361 29.6363 49.0361H80.0367V102.043H29.6363C25.797 102.043 22.6846 98.931 22.6846 95.0916V55.9879Z" fill="#D74025"/>
<path d="M81.7744 49.0361H139.127V102.043H81.7744V49.0361Z" fill="#E5862E"/>
<path d="M199.955 49.0361H257.307V102.043H199.955V49.0361Z" fill="#A9D161"/>
<path d="M259.045 49.0361H305.969C309.809 49.0361 312.921 52.1485 312.921 55.9879V95.0916C312.921 98.931 309.809 102.043 305.969 102.043H259.045V49.0361Z" fill="#009900"/>
<path d="M41.3744 72.6502C41.3327 73.2203 40.9851 73.7764 40.6376 74.263L37.1895 79.1015V79.5464H43.4322V77.7389H40.2622C41.4996 76.14 41.9306 75.417 42.2226 75.0138C44.1551 72.4417 43.1124 69.661 40.3595 69.661C38.4547 69.661 37.3146 70.7733 37.3146 72.678H39.0943C39.0943 71.7187 39.7477 71.4406 40.3039 71.4406C40.8739 71.4406 41.4161 71.8438 41.3744 72.6502ZM48.9789 69.6471C46.9629 69.6471 45.3362 70.8984 45.3362 72.9978V76.3903C45.3362 78.5036 46.9629 79.741 48.9789 79.741C50.9671 79.741 52.5938 78.5036 52.5938 76.3903V72.9978C52.5938 70.8984 50.9671 69.6471 48.9789 69.6471ZM48.9789 77.9197C48.0891 77.9197 47.4356 77.4609 47.3383 76.6127C47.3105 76.3764 47.2966 76.1261 47.2966 75.8341V73.5679C47.2966 73.2898 47.3105 73.0256 47.3383 72.7754C47.4356 71.8994 48.0891 71.4684 48.9789 71.4684C49.827 71.4684 50.5083 71.8994 50.6056 72.7754C50.6334 73.0256 50.6473 73.2898 50.6473 73.5679V75.8341C50.6473 76.1261 50.6334 76.3764 50.6056 76.6127C50.5083 77.4609 49.827 77.9197 48.9789 77.9197ZM56.8531 79.5464H58.7301L63.5129 69.8278H61.622L56.8531 79.5464ZM66.1129 77.3079C66.1129 73.9989 61.1215 73.9989 61.1215 77.3079C61.1215 80.6309 66.1129 80.6309 66.1129 77.3079ZM62.6648 77.3079C62.6648 75.8202 64.5557 75.8202 64.5557 77.3079C64.5557 78.8234 62.6648 78.8234 62.6648 77.3079ZM59.2584 72.0941C59.2584 68.7711 54.267 68.7711 54.267 72.0941C54.267 75.417 59.2584 75.417 59.2584 72.0941ZM55.8242 72.0941C55.8242 70.5786 57.7151 70.5786 57.7151 72.0941C57.7151 73.5818 55.8242 73.5818 55.8242 72.0941Z" fill="white"/>
<path d="M98.728 72.6502C98.6862 73.2203 98.3387 73.7764 97.9911 74.263L94.543 79.1015V79.5464H100.786V77.7389H97.6157C98.8531 76.14 99.2841 75.417 99.5761 75.0138C101.509 72.4417 100.466 69.661 97.713 69.661C95.8082 69.661 94.6681 70.7733 94.6681 72.678H96.4478C96.4478 71.7187 97.1012 71.4406 97.6574 71.4406C98.2274 71.4406 98.7697 71.8438 98.728 72.6502ZM106.332 69.6471C104.316 69.6471 102.69 70.8984 102.69 72.9978V76.3903C102.69 78.5036 104.316 79.741 106.332 79.741C108.321 79.741 109.947 78.5036 109.947 76.3903V72.9978C109.947 70.8984 108.321 69.6471 106.332 69.6471ZM106.332 77.9197C105.443 77.9197 104.789 77.4609 104.692 76.6127C104.664 76.3764 104.65 76.1261 104.65 75.8341V73.5679C104.65 73.2898 104.664 73.0256 104.692 72.7754C104.789 71.8994 105.443 71.4684 106.332 71.4684C107.181 71.4684 107.862 71.8994 107.959 72.7754C107.987 73.0256 108.001 73.2898 108.001 73.5679V75.8341C108.001 76.1261 107.987 76.3764 107.959 76.6127C107.862 77.4609 107.181 77.9197 106.332 77.9197ZM114.207 79.5464H116.084L120.866 69.8278H118.976L114.207 79.5464ZM123.466 77.3079C123.466 73.9989 118.475 73.9989 118.475 77.3079C118.475 80.6309 123.466 80.6309 123.466 77.3079ZM120.018 77.3079C120.018 75.8202 121.909 75.8202 121.909 77.3079C121.909 78.8234 120.018 78.8234 120.018 77.3079ZM116.612 72.0941C116.612 68.7711 111.621 68.7711 111.621 72.0941C111.621 75.417 116.612 75.417 116.612 72.0941ZM113.178 72.0941C113.178 70.5786 115.069 70.5786 115.069 72.0941C115.069 73.5818 113.178 73.5818 113.178 72.0941Z" fill="white"/>
<path d="M157.817 72.6502C157.775 73.2203 157.428 73.7764 157.08 74.263L153.632 79.1015V79.5464H159.875V77.7389H156.705C157.942 76.14 158.373 75.417 158.665 75.0138C160.598 72.4417 159.555 69.661 156.802 69.661C154.897 69.661 153.757 70.7733 153.757 72.678H155.537C155.537 71.7187 156.19 71.4406 156.746 71.4406C157.316 71.4406 157.859 71.8438 157.817 72.6502ZM165.421 69.6471C163.405 69.6471 161.779 70.8984 161.779 72.9978V76.3903C161.779 78.5036 163.405 79.741 165.421 79.741C167.41 79.741 169.036 78.5036 169.036 76.3903V72.9978C169.036 70.8984 167.41 69.6471 165.421 69.6471ZM165.421 77.9197C164.531 77.9197 163.878 77.4609 163.781 76.6127C163.753 76.3764 163.739 76.1261 163.739 75.8341V73.5679C163.739 73.2898 163.753 73.0256 163.781 72.7754C163.878 71.8994 164.531 71.4684 165.421 71.4684C166.269 71.4684 166.951 71.8994 167.048 72.7754C167.076 73.0256 167.09 73.2898 167.09 73.5679V75.8341C167.09 76.1261 167.076 76.3764 167.048 76.6127C166.951 77.4609 166.269 77.9197 165.421 77.9197ZM173.295 79.5464H175.172L179.955 69.8278H178.064L173.295 79.5464ZM182.555 77.3079C182.555 73.9989 177.564 73.9989 177.564 77.3079C177.564 80.6309 182.555 80.6309 182.555 77.3079ZM179.107 77.3079C179.107 75.8202 180.998 75.8202 180.998 77.3079C180.998 78.8234 179.107 78.8234 179.107 77.3079ZM175.701 72.0941C175.701 68.7711 170.709 68.7711 170.709 72.0941C170.709 75.417 175.701 75.417 175.701 72.0941ZM172.267 72.0941C172.267 70.5786 174.157 70.5786 174.157 72.0941C174.157 73.5818 172.267 73.5818 172.267 72.0941Z" fill="white"/>
<path d="M216.907 72.6502C216.865 73.2203 216.517 73.7764 216.17 74.263L212.722 79.1015V79.5464H218.964V77.7389H215.794C217.032 76.14 217.463 75.417 217.755 75.0138C219.687 72.4417 218.645 69.661 215.892 69.661C213.987 69.661 212.847 70.7733 212.847 72.678H214.626C214.626 71.7187 215.28 71.4406 215.836 71.4406C216.406 71.4406 216.948 71.8438 216.907 72.6502ZM224.511 69.6471C222.495 69.6471 220.868 70.8984 220.868 72.9978V76.3903C220.868 78.5036 222.495 79.741 224.511 79.741C226.499 79.741 228.126 78.5036 228.126 76.3903V72.9978C228.126 70.8984 226.499 69.6471 224.511 69.6471ZM224.511 77.9197C223.621 77.9197 222.968 77.4609 222.871 76.6127C222.843 76.3764 222.829 76.1261 222.829 75.8341V73.5679C222.829 73.2898 222.843 73.0256 222.871 72.7754C222.968 71.8994 223.621 71.4684 224.511 71.4684C225.359 71.4684 226.041 71.8994 226.138 72.7754C226.166 73.0256 226.18 73.2898 226.18 73.5679V75.8341C226.18 76.1261 226.166 76.3764 226.138 76.6127C226.041 77.4609 225.359 77.9197 224.511 77.9197ZM232.385 79.5464H234.262L239.045 69.8278H237.154L232.385 79.5464ZM241.645 77.3079C241.645 73.9989 236.654 73.9989 236.654 77.3079C236.654 80.6309 241.645 80.6309 241.645 77.3079ZM238.197 77.3079C238.197 75.8202 240.088 75.8202 240.088 77.3079C240.088 78.8234 238.197 78.8234 238.197 77.3079ZM234.791 72.0941C234.791 68.7711 229.799 68.7711 229.799 72.0941C229.799 75.417 234.791 75.417 234.791 72.0941ZM231.356 72.0941C231.356 70.5786 233.247 70.5786 233.247 72.0941C233.247 73.5818 231.356 73.5818 231.356 72.0941Z" fill="white"/>
<path d="M275.128 72.6502C275.087 73.2203 274.739 73.7764 274.391 74.263L270.943 79.1015V79.5464H277.186V77.7389H274.016C275.253 76.14 275.684 75.417 275.976 75.0138C277.909 72.4417 276.866 69.661 274.113 69.661C272.209 69.661 271.069 70.7733 271.069 72.678H272.848C272.848 71.7187 273.502 71.4406 274.058 71.4406C274.628 71.4406 275.17 71.8438 275.128 72.6502ZM282.733 69.6471C280.717 69.6471 279.09 70.8984 279.09 72.9978V76.3903C279.09 78.5036 280.717 79.741 282.733 79.741C284.721 79.741 286.348 78.5036 286.348 76.3903V72.9978C286.348 70.8984 284.721 69.6471 282.733 69.6471ZM282.733 77.9197C281.843 77.9197 281.19 77.4609 281.092 76.6127C281.064 76.3764 281.05 76.1261 281.05 75.8341V73.5679C281.05 73.2898 281.064 73.0256 281.092 72.7754C281.19 71.8994 281.843 71.4684 282.733 71.4684C283.581 71.4684 284.262 71.8994 284.36 72.7754C284.387 73.0256 284.401 73.2898 284.401 73.5679V75.8341C284.401 76.1261 284.387 76.3764 284.36 76.6127C284.262 77.4609 283.581 77.9197 282.733 77.9197ZM290.607 79.5464H292.484L297.267 69.8278H295.376L290.607 79.5464ZM299.867 77.3079C299.867 73.9989 294.875 73.9989 294.875 77.3079C294.875 80.6309 299.867 80.6309 299.867 77.3079ZM296.419 77.3079C296.419 75.8202 298.31 75.8202 298.31 77.3079C298.31 78.8234 296.419 78.8234 296.419 77.3079ZM293.012 72.0941C293.012 68.7711 288.021 68.7711 288.021 72.0941C288.021 75.417 293.012 75.417 293.012 72.0941ZM289.578 72.0941C289.578 70.5786 291.469 70.5786 291.469 72.0941C291.469 73.5818 289.578 73.5818 289.578 72.0941Z" fill="white"/>
<path d="M101.148 127.625L100.23 125.762L99.0206 123.69H96.7821V123.996L100.133 129.529V133.422H102.218V129.529L105.555 123.996V123.69H103.345L102.177 125.692L101.217 127.625H101.148ZM115.948 128.556C115.948 125.289 113.543 123.537 110.999 123.537C108.413 123.537 106.007 125.275 106.007 128.556C106.007 131.837 108.357 133.589 110.957 133.589C113.905 133.589 115.948 131.518 115.948 128.556ZM108.107 128.556C108.107 126.498 109.469 125.456 110.999 125.456C112.514 125.456 113.877 126.484 113.877 128.556C113.877 130.683 112.5 131.684 110.985 131.684C109.428 131.684 108.107 130.683 108.107 128.556ZM121.744 133.547C123.801 133.547 125.595 132.366 125.595 130.183V123.69H123.537V130.141C123.537 131.184 122.703 131.712 121.744 131.712C120.784 131.712 119.936 131.184 119.936 130.141V123.69H117.851V130.183C117.851 132.366 119.686 133.547 121.744 133.547ZM133.91 129.877C135.022 129.335 135.648 128.25 135.648 127.013C135.648 125.289 134.438 123.676 132.214 123.676C130.823 123.662 129.447 123.676 128.056 123.676V133.408H130.142V130.197H131.88L133.882 133.408H136.107V133.116L133.91 129.877ZM130.114 128.487V125.497H132.2C133.089 125.497 133.632 126.151 133.632 126.971C133.646 127.805 133.076 128.487 132.2 128.487H130.114ZM141.077 128.57C141.077 131.796 143.497 133.52 146.055 133.52C148.085 133.52 150.156 132.449 150.574 129.877H148.571C148.238 131.059 147.251 131.629 146.041 131.629C144.303 131.629 143.177 130.238 143.177 128.57C143.177 126.721 144.331 125.47 146.055 125.47C147.223 125.47 148.099 125.956 148.53 127.055H150.546C150.101 124.649 148.015 123.593 146.055 123.593C143.497 123.551 141.077 125.331 141.077 128.57ZM155.436 131.768V125.303H156.701V123.69H152.085V125.303H153.351V131.768H151.974V133.422H156.813V131.768H155.436ZM166.051 126.582C166.051 124.76 164.772 123.704 162.992 123.704H158.863V133.422H163.382C165.328 133.422 166.468 132.254 166.468 130.544C166.468 129.543 165.982 128.751 165.078 128.375C165.69 128 166.051 127.291 166.051 126.582ZM162.839 125.483C163.562 125.483 164.021 125.942 164.007 126.651C163.993 127.305 163.549 127.694 162.839 127.694H160.935V125.483H162.839ZM163.145 129.39C163.465 129.39 163.743 129.418 163.98 129.585C164.272 129.794 164.424 130.155 164.411 130.544C164.369 131.198 163.952 131.615 163.243 131.615H160.935V129.39H163.145ZM171.362 131.768V125.303H172.627V123.69H168.011V125.303H169.277V131.768H167.9V133.422H172.739V131.768H171.362ZM176.861 123.69H174.775V133.422H180.921V131.559H176.861V123.69ZM185.285 130.544C185.285 132.672 187.301 133.631 189.247 133.631C191.166 133.589 193.154 132.88 193.154 130.586C193.154 128.306 191.388 127.847 189.331 127.666C188.316 127.555 187.468 127.36 187.468 126.498C187.468 125.748 188.288 125.303 189.122 125.303C189.956 125.303 190.777 125.636 190.888 126.429H192.834C192.834 124.246 190.943 123.481 189.122 123.481C187.189 123.481 185.424 124.385 185.424 126.54C185.424 128.556 187.203 129.154 188.969 129.307C189.901 129.376 191.096 129.474 191.096 130.586C191.096 131.601 190.095 131.81 189.233 131.81C188.288 131.81 187.315 131.434 187.273 130.544H185.285ZM194.578 128.57C194.578 131.796 196.998 133.52 199.556 133.52C201.586 133.52 203.657 132.449 204.074 129.877H202.072C201.739 131.059 200.751 131.629 199.542 131.629C197.804 131.629 196.678 130.238 196.678 128.57C196.678 126.721 197.832 125.47 199.556 125.47C200.724 125.47 201.6 125.956 202.031 127.055H204.047C203.602 124.649 201.516 123.593 199.556 123.593C196.998 123.551 194.578 125.331 194.578 128.57ZM215.374 128.556C215.374 125.289 212.969 123.537 210.425 123.537C207.839 123.537 205.433 125.275 205.433 128.556C205.433 131.837 207.783 133.589 210.383 133.589C213.331 133.589 215.374 131.518 215.374 128.556ZM207.533 128.556C207.533 126.498 208.895 125.456 210.425 125.456C211.94 125.456 213.303 126.484 213.303 128.556C213.303 130.683 211.926 131.684 210.411 131.684C208.854 131.684 207.533 130.683 207.533 128.556ZM223.228 129.877C224.34 129.335 224.965 128.25 224.965 127.013C224.965 125.289 223.756 123.676 221.531 123.676C220.141 123.662 218.764 123.676 217.374 123.676V133.408H219.46V130.197H221.198L223.2 133.408H225.424V133.116L223.228 129.877ZM219.432 128.487V125.497H221.517C222.407 125.497 222.949 126.151 222.949 126.971C222.963 127.805 222.393 128.487 221.517 128.487H219.432ZM233.216 123.69H227.251V133.422H233.327V131.531H229.351V129.307H232.966V127.486H229.351V125.511H233.216V123.69Z" fill="#2C2C2C"/>
<path d="M154.588 152.22C154.476 149.356 157.062 149.314 157.062 147.145C157.062 145.421 155.797 144.49 154.198 144.49C152.655 144.49 151.376 145.254 151.265 147.034H152.321C152.474 146.005 153.308 145.477 154.212 145.519C155.158 145.56 155.894 146.158 155.894 147.09C155.894 149.189 153.489 148.869 153.545 152.22H154.588ZM154.101 154.459C154.49 154.459 154.782 154.194 154.782 153.805C154.782 153.416 154.49 153.166 154.101 153.166C153.712 153.166 153.406 153.416 153.406 153.805C153.406 154.194 153.712 154.459 154.101 154.459ZM161.709 152.22C161.598 149.356 164.184 149.314 164.184 147.145C164.184 145.421 162.918 144.49 161.319 144.49C159.776 144.49 158.497 145.254 158.386 147.034H159.442C159.595 146.005 160.43 145.477 161.333 145.519C162.279 145.56 163.016 146.158 163.016 147.09C163.016 149.189 160.61 148.869 160.666 152.22H161.709ZM161.222 154.459C161.611 154.459 161.903 154.194 161.903 153.805C161.903 153.416 161.611 153.166 161.222 153.166C160.833 153.166 160.527 153.416 160.527 153.805C160.527 154.194 160.833 154.459 161.222 154.459ZM168.83 152.22C168.719 149.356 171.305 149.314 171.305 147.145C171.305 145.421 170.04 144.49 168.441 144.49C166.897 144.49 165.618 145.254 165.507 147.034H166.564C166.717 146.005 167.551 145.477 168.455 145.519C169.4 145.56 170.137 146.158 170.137 147.09C170.137 149.189 167.732 148.869 167.787 152.22H168.83ZM168.343 154.459C168.733 154.459 169.025 154.194 169.025 153.805C169.025 153.416 168.733 153.166 168.343 153.166C167.954 153.166 167.648 153.416 167.648 153.805C167.648 154.194 167.954 154.459 168.343 154.459Z" fill="#707070"/>
</svg>
